<?xml version="1.0" encoding="UTF-8" standalone="no"?>
<!-- Uploaded to SVGRepo https://www.svgrepo.com -->

<svg
   version="1.1"
   id="Layer_1"
   x="0px"
   y="0px"
   width="62px"
   height="72px"
   viewBox="-10 -10 92 82"
   enable-background="new 0 0 72 62"
   xml:space="preserve"
   sodipodi:docname="logo2.svg"
   inkscape:version="1.1 (c68e22c387, 2021-05-23)"
   xmlns:inkscape="http://www.inkscape.org/namespaces/inkscape"
   xmlns:sodipodi="http://sodipodi.sourceforge.net/DTD/sodipodi-0.dtd"
   xmlns="http://www.w3.org/2000/svg"
   xmlns:svg="http://www.w3.org/2000/svg"><defs
   id="defs17" /><sodipodi:namedview
   id="namedview15"
   pagecolor="#ffffff"
   bordercolor="#666666"
   borderopacity="1.0"
   inkscape:pageshadow="2"
   inkscape:pageopacity="0.0"
   inkscape:pagecheckerboard="0"
   showgrid="false"
   inkscape:zoom="4.0769125"
   inkscape:cx="34.462353"
   inkscape:cy="28.820829"
   inkscape:window-width="1920"
   inkscape:window-height="999"
   inkscape:window-x="-9"
   inkscape:window-y="-9"
   inkscape:window-maximized="1"
   inkscape:current-layer="g12" />
<g
   id="g12"
   transform="matrix(1.6057448,0,0,1.5316643,-4.4120089,-10.292009)">
	<path
   fill="#828282"
   d="m 34.609548,10.951687 c -0.289575,-0.07943 -0.609933,0.09598 -0.718624,0.395664 -0.107526,0.299617 0.03793,0.608429 0.326299,0.690108 4.284816,1.210175 6.121328,3.212981 5.953966,6.497128 -0.148834,2.92111 -2.907254,5.302829 -4.536842,6.463626 -0.156978,0.112239 -0.256032,0.288119 -0.265479,0.473562 l -0.218962,4.296815 c -0.798135,-0.270387 -2.181715,-0.903368 -3.36103,-2.270803 -0.122914,-0.141577 -0.317882,-0.200397 -0.512559,-0.156069 -0.320822,0.0756 -0.64967,0.177356 -0.983019,0.280432 -0.576325,0.178661 -1.170776,0.363708 -1.726996,0.38785 -2.862465,0.124226 -4.835032,-0.409117 -6.80641,-1.838607 -0.24029,-0.173485 -0.589767,-0.103369 -0.785284,0.154072 -0.195577,0.258575 -0.159948,0.606926 0.07817,0.780517 2.174085,1.576571 4.334114,2.16351 7.456295,2.027965 0.70335,-0.03051 1.372351,-0.237888 2.018762,-0.438665 0.201219,-0.06371 0.401266,-0.126221 0.59868,-0.180755 1.970254,2.128205 4.300949,2.530547 4.402469,2.546325 0.0364,0.0063 0.07306,0.008 0.110895,0.0067 0.12705,-0.0056 0.255262,-0.05479 0.358706,-0.142295 0.135862,-0.11244 0.218676,-0.275281 0.227274,-0.443867 l 0.242783,-4.764404 c 2.983516,-2.194144 4.691037,-4.753406 4.817273,-7.230565 0.19364,-3.800025 -1.927672,-6.194189 -6.676316,-7.534502 z"
   id="path2"
   style="stroke-width:1.11803"
   inkscape:transform-center-x="31.075324"
   inkscape:transform-center-y="1.8177305" />
	<path
   fill="#828282"
   d="M 33,13.457992 C 33,5.7619925 25.982,-0.04200743 16.677,-0.04200743 7.325,-0.04200743 0,5.8889925 0,13.459992 c 0,4.539 3.211,7.791 6,9.759 v 6.636 c 0,0.17 0.086,0.327 0.228,0.42 0.083,0.053 0.177,0.08 0.272,0.08 0.069,0 0.139,-0.015 0.205,-0.044 0.146,-0.065 3.559,-1.616 6.479,-4.809 1.265,0.235 2.696,0.461 3.994,0.461 9.463,0 15.822,-5.026 15.822,-12.505 z m -15.823,11.505 c -1.31,0 -2.799,-0.251 -4.083,-0.496 -0.173,-0.031 -0.351,0.028 -0.468,0.159 -2.05,2.312 -4.459,3.781 -5.626,4.414 v -6.082 c 0,-0.165 -0.081,-0.318 -0.217,-0.412 C 4.145,20.730992 1,17.682992 1,13.459992 1,6.4489925 7.886,0.95799257 16.677,0.95799257 25.413,0.95799257 32,6.3319925 32,13.457992 c 0,6.882 -5.957,11.505 -14.823,11.505 z"
   id="path4" />
	<path
   fill="#828282"
   d="m 16.7151,10.303517 c -1.420513,0 -2.575725,1.155892 -2.575725,2.577238 0,1.421347 1.155212,2.577238 2.575725,2.577238 1.420511,0 2.575724,-1.155891 2.575724,-2.577238 0,-1.421346 -1.155213,-2.577238 -2.575724,-2.577238 z m 0,3.865857 c -0.709613,0 -1.287863,-0.577301 -1.287863,-1.288619 0,-0.711317 0.57825,-1.288619 1.287863,-1.288619 0.709612,0 1.287862,0.577302 1.287862,1.288619 0,0.711318 -0.57825,1.288619 -1.287862,1.288619 z"
   id="path6"
   style="stroke-width:1.28824" />
	<path
   fill="#828282"
   d="m 24.000868,10.468903 c -1.379229,0 -2.500868,1.128223 -2.500868,2.515549 0,1.387324 1.121639,2.515548 2.500868,2.515548 1.379228,0 2.500868,-1.128224 2.500868,-2.515548 0,-1.387326 -1.12164,-2.515549 -2.500868,-2.515549 z m 0,3.773323 c -0.688989,0 -1.250434,-0.563484 -1.250434,-1.257774 0,-0.694291 0.561445,-1.257774 1.250434,-1.257774 0.688989,0 1.250434,0.563483 1.250434,1.257774 0,0.69429 -0.561445,1.257774 -1.250434,1.257774 z"
   id="path8"
   style="stroke-width:1.25411" />
	<path
   fill="#828282"
   d="m 9.5400694,10.250762 c -1.4786709,0 -2.6811804,1.132504 -2.6811804,2.525093 0,1.392588 1.2025095,2.525093 2.6811804,2.525093 1.4786716,0 2.6811806,-1.132505 2.6811806,-2.525093 0,-1.392589 -1.202509,-2.525093 -2.6811806,-2.525093 z m 0,3.787639 c -0.7386651,0 -1.3405901,-0.56562 -1.3405901,-1.262546 0,-0.696925 0.601925,-1.262547 1.3405901,-1.262547 0.7386656,0 1.3405896,0.565622 1.3405896,1.262547 0,0.696926 -0.601924,1.262546 -1.3405896,1.262546 z"
   id="path10"
   style="stroke-width:1.30098" />
</g>
</svg>
